<?xml version="1.0" encoding="utf-8"?>
<!-- Generator: Adobe Illustrator 16.0.0, SVG Export Plug-In . SVG Version: 6.00 Build 0)  -->
<!DOCTYPE svg PUBLIC "-//W3C//DTD SVG 1.1//EN" "http://www.w3.org/Graphics/SVG/1.1/DTD/svg11.dtd">
<svg version="1.1" id="Layer_1" xmlns="http://www.w3.org/2000/svg" xmlns:xlink="http://www.w3.org/1999/xlink" x="0px" y="0px"
	 width="824.825px" height="27.28125px" viewBox="0 0 3299.31 109.125" enable-background="new 0 0 3299.31 109.125"
	 xml:space="preserve">
<polygon points="3299.31,98.111 3299.31,93.152 3267.226,93.152 3299.31,71.16 3299.31,66.734 3261.6,93.152 3229.226,93.152 
	3288.976,52.194 3234.6,14.153 3265.165,14.534 3299.31,37.5 3299.31,32.839 3272.6,14.153 3299.31,14.486 3299.31,11.444 
	1694.018,11.444 1694.018,6.444 0,6.444 0,15.515 0.034,15.492 30.6,15.111 0,36.519 0,41.075 38.034,15.492 68.6,15.111 
	14.224,53.153 73.974,94.111 41.6,94.111 0,64.969 0,69.451 35.974,94.111 3.6,94.111 0,91.59 0,103.111 1698.393,103.111 
	1698.393,98.111 "/>
<polygon fill="none" points="0,69.451 0,36.519 -23.776,53.153 "/>
<polygon fill="#F69322" points="30.6,15.111 0.034,15.492 0,15.515 0,36.519 "/>
<polygon fill="#F69322" points="35.974,94.111 0,69.451 0,91.59 3.6,94.111 "/>
<polygon fill="#059348" points="73.974,94.111 14.224,53.153 68.6,15.111 38.034,15.492 0,41.075 0,64.969 41.6,94.111 "/>
<polygon fill="#F16824" points="75.034,15.492 19.6,52.778 78.6,94.111 110.974,94.111 51.224,53.153 105.6,15.111 "/>
<polygon fill="#059348" points="113.034,15.492 57.6,52.778 116.6,94.111 148.974,94.111 89.224,53.153 143.6,15.111 "/>
<polygon fill="#F69322" stroke="#E2D2C4" stroke-miterlimit="10" points="151.034,15.492 95.6,52.778 154.6,94.111 186.974,94.111 
	127.224,53.153 181.6,15.111 "/>
<polygon fill="#F16824" points="3228.165,14.534 3283.6,51.82 3224.6,93.152 3192.226,93.152 3251.976,52.194 3197.6,14.153 "/>
<polygon fill="#059348" points="3190.165,14.534 3245.6,51.82 3186.6,93.152 3154.226,93.152 3213.976,52.194 3159.6,14.153 "/>
<polygon fill="#F69322" stroke="#E2D2C4" stroke-miterlimit="10" points="3152.165,14.534 3207.6,51.82 3148.6,93.152 
	3116.226,93.152 3175.976,52.194 3121.6,14.153 "/>
<polygon fill="#FFFFFF" points="189.034,15.492 133.6,52.778 192.6,94.111 224.974,94.111 165.224,53.153 219.6,15.111 "/>
<polygon fill="#F69322" points="455.225,15.492 510.659,52.778 451.659,94.111 419.285,94.111 479.035,53.153 424.659,15.111 "/>
<polygon fill="#059348" points="417.225,15.492 472.659,52.778 413.659,94.111 381.285,94.111 441.035,53.153 386.659,15.111 "/>
<polygon fill="#F16824" points="380.225,15.492 435.659,52.778 376.659,94.111 344.285,94.111 404.035,53.153 349.659,15.111 "/>
<polygon fill="#059348" points="342.225,15.492 397.659,52.778 338.659,94.111 306.285,94.111 366.035,53.153 311.659,15.111 "/>
<polygon fill="#F69322" points="304.225,15.492 359.659,52.778 300.659,94.111 268.285,94.111 328.035,53.153 273.659,15.111 "/>
<polygon fill="#FFFFFF" points="266.225,15.492 321.659,52.778 262.659,94.111 230.285,94.111 290.035,53.153 235.659,15.111 "/>
<polyline fill="#059348" points="178.25,53.028 226.75,15.111 278.25,53.028 228.25,88.028 179.287,54.611 "/>
<polygon fill="#059348" points="510.252,47.278 559.317,15.111 462.649,15.111 "/>
<polygon fill="#059348" points="512.252,57.478 462.336,94.111 562.983,94.111 "/>
<polygon fill="#F69322" points="568.095,15.492 512.66,52.778 571.66,94.111 604.034,94.111 544.284,53.153 598.66,15.111 "/>
<polygon fill="#059348" points="606.095,15.492 550.66,52.778 609.66,94.111 642.034,94.111 582.284,53.153 636.66,15.111 "/>
<polygon fill="#F16824" points="643.095,15.492 587.66,52.778 646.66,94.111 679.034,94.111 619.284,53.153 673.66,15.111 "/>
<polygon fill="#059348" points="681.095,15.492 625.66,52.778 684.66,94.111 717.034,94.111 657.284,53.153 711.66,15.111 "/>
<polygon fill="#F69322" points="719.095,15.492 663.66,52.778 722.66,94.111 755.034,94.111 695.284,53.153 749.66,15.111 "/>
<polygon fill="#FFFFFF" points="757.095,15.492 701.66,52.778 760.66,94.111 793.034,94.111 733.284,53.153 787.66,15.111 "/>
<polygon fill="#F69322" points="1023.285,15.492 1078.72,52.778 1019.72,94.111 987.346,94.111 1047.096,53.153 992.72,15.111 "/>
<polygon fill="#059348" points="985.285,15.492 1040.72,52.778 981.72,94.111 949.346,94.111 1009.096,53.153 954.72,15.111 "/>
<polygon fill="#F16824" points="948.285,15.492 1003.72,52.778 944.72,94.111 912.346,94.111 972.096,53.153 917.72,15.111 "/>
<polygon fill="#059348" points="910.285,15.492 965.72,52.778 906.72,94.111 874.346,94.111 934.096,53.153 879.72,15.111 "/>
<polygon fill="#F69322" points="872.285,15.492 927.72,52.778 868.72,94.111 836.346,94.111 896.096,53.153 841.72,15.111 "/>
<polygon fill="#FFFFFF" points="834.285,15.492 889.72,52.778 830.72,94.111 798.346,94.111 858.096,53.153 803.72,15.111 "/>
<polyline fill="#059348" points="746.311,53.028 794.811,15.111 846.311,53.028 796.311,88.028 747.348,54.611 "/>
<polyline fill="#F69322" points="761.008,52.599 795.252,25.829 831.613,52.599 796.311,77.312 761.74,53.718 "/>
<polyline fill="#F69322" points="192.947,52.599 227.191,25.829 263.553,52.599 228.25,77.312 193.68,53.718 "/>
<polygon fill="#059348" points="1078.313,47.278 1127.378,15.111 1030.71,15.111 "/>
<polygon fill="#059348" points="1080.313,57.478 1030.396,94.111 1131.044,94.111 "/>
<polygon fill="#F69322" points="1137.301,15.492 1081.866,52.778 1140.866,94.111 1173.24,94.111 1113.49,53.153 1167.866,15.111 
	"/>
<polygon fill="#059348" points="1175.301,15.492 1119.866,52.778 1178.866,94.111 1211.24,94.111 1151.49,53.153 1205.866,15.111 
	"/>
<polygon fill="#F16824" points="1212.301,15.492 1156.866,52.778 1215.866,94.111 1248.24,94.111 1188.49,53.153 1242.866,15.111 
	"/>
<polygon fill="#059348" points="1250.301,15.492 1194.866,52.778 1253.866,94.111 1286.24,94.111 1226.49,53.153 1280.866,15.111 
	"/>
<polygon fill="#F69322" points="1288.301,15.492 1232.866,52.778 1291.866,94.111 1324.24,94.111 1264.49,53.153 1318.866,15.111 
	"/>
<polygon fill="#FFFFFF" points="1326.301,15.492 1270.866,52.778 1329.866,94.111 1362.24,94.111 1302.49,53.153 1356.866,15.111 
	"/>
<polygon fill="#F69322" points="1592.491,15.492 1647.926,52.778 1588.926,94.111 1556.552,94.111 1616.302,53.153 1561.926,15.111 
	"/>
<polygon fill="#059348" points="1554.491,15.492 1609.926,52.778 1550.926,94.111 1518.552,94.111 1578.302,53.153 1523.926,15.111 
	"/>
<polygon fill="#F16824" points="1517.491,15.492 1572.926,52.778 1513.926,94.111 1481.552,94.111 1541.302,53.153 1486.926,15.111 
	"/>
<polygon fill="#059348" points="1479.491,15.492 1534.926,52.778 1475.926,94.111 1443.552,94.111 1503.302,53.153 1448.926,15.111 
	"/>
<polygon fill="#F69322" points="1441.491,15.492 1496.926,52.778 1437.926,94.111 1405.552,94.111 1465.302,53.153 1410.926,15.111 
	"/>
<polygon fill="#FFFFFF" points="1403.491,15.492 1458.926,52.778 1399.926,94.111 1367.552,94.111 1427.302,53.153 1372.926,15.111 
	"/>
<polyline fill="#059348" points="1315.517,53.028 1364.017,15.111 1415.516,53.028 1365.517,88.028 1316.554,54.611 "/>
<polygon fill="#059348" points="1647.519,47.278 1696.584,15.111 1599.916,15.111 "/>
<polygon fill="#059348" points="1649.519,57.478 1599.603,94.111 1700.25,94.111 "/>
<polyline fill="#F69322" points="1332.249,52.599 1366.493,25.829 1402.854,52.599 1367.552,77.312 1332.981,53.718 "/>
<rect y="1.444" fill="#F69322" width="1696.584" height="10"/>
<rect y="98.111" fill="#F69322" width="1700.25" height="10"/>
<polygon fill="#F69322" points="1706.954,15.492 1651.52,52.778 1710.52,94.111 1742.894,94.111 1683.144,53.153 1737.52,15.111 "/>
<polygon fill="#059348" points="1744.954,15.492 1689.52,52.778 1748.52,94.111 1780.894,94.111 1721.144,53.153 1775.52,15.111 "/>
<polygon fill="#F16824" points="1781.954,15.492 1726.52,52.778 1785.52,94.111 1817.894,94.111 1758.144,53.153 1812.52,15.111 "/>
<polygon fill="#059348" points="1819.954,15.492 1764.52,52.778 1823.52,94.111 1855.894,94.111 1796.144,53.153 1850.52,15.111 "/>
<polygon fill="#F69322" stroke="#E2D2C4" stroke-miterlimit="10" points="1857.954,15.492 1802.52,52.778 1861.52,94.111 
	1893.894,94.111 1834.144,53.153 1888.52,15.111 "/>
<polygon fill="#FFFFFF" points="1895.954,15.492 1840.52,52.778 1899.52,94.111 1931.894,94.111 1872.144,53.153 1926.52,15.111 "/>
<polygon fill="#F69322" points="2162.145,15.492 2217.579,52.778 2158.579,94.111 2126.205,94.111 2185.955,53.153 2131.579,15.111 
	"/>
<polygon fill="#059348" points="2124.145,15.492 2179.579,52.778 2120.579,94.111 2088.205,94.111 2147.955,53.153 2093.579,15.111 
	"/>
<polygon fill="#F16824" points="2087.145,15.492 2142.579,52.778 2083.579,94.111 2051.205,94.111 2110.955,53.153 2056.579,15.111 
	"/>
<polygon fill="#059348" points="2049.145,15.492 2104.579,52.778 2045.579,94.111 2013.205,94.111 2072.955,53.153 2018.579,15.111 
	"/>
<polygon fill="#F69322" points="2011.145,15.492 2066.579,52.778 2007.579,94.111 1975.205,94.111 2034.955,53.153 1980.579,15.111 
	"/>
<polygon fill="#FFFFFF" points="1973.145,15.492 2028.579,52.778 1969.579,94.111 1937.205,94.111 1996.955,53.153 1942.579,15.111 
	"/>
<polyline fill="#059348" points="1885.17,53.028 1933.67,15.111 1985.17,53.028 1935.17,88.028 1886.207,54.611 "/>
<polygon fill="#059348" points="2217.172,47.278 2266.237,15.111 2169.569,15.111 "/>
<polygon fill="#059348" points="2219.172,57.478 2169.256,94.111 2269.903,94.111 "/>
<polygon fill="#F69322" points="2275.015,15.492 2219.58,52.778 2278.58,94.111 2310.954,94.111 2251.204,53.153 2305.58,15.111 "/>
<polygon fill="#059348" points="2313.015,15.492 2257.58,52.778 2316.58,94.111 2348.954,94.111 2289.204,53.153 2343.58,15.111 "/>
<polygon fill="#F16824" points="2350.015,15.492 2294.58,52.778 2353.58,94.111 2385.954,94.111 2326.204,53.153 2380.58,15.111 "/>
<polygon fill="#059348" points="2388.015,15.492 2332.58,52.778 2391.58,94.111 2423.954,94.111 2364.204,53.153 2418.58,15.111 "/>
<polygon fill="#F69322" points="2426.015,15.492 2370.58,52.778 2429.58,94.111 2461.954,94.111 2402.204,53.153 2456.58,15.111 "/>
<polygon fill="#FFFFFF" points="2464.015,15.492 2408.58,52.778 2467.58,94.111 2499.954,94.111 2440.204,53.153 2494.58,15.111 "/>
<polygon fill="#F69322" points="2730.205,15.492 2785.64,52.778 2726.64,94.111 2694.266,94.111 2754.016,53.153 2699.64,15.111 "/>
<polygon fill="#059348" points="2692.205,15.492 2747.64,52.778 2688.64,94.111 2656.266,94.111 2716.016,53.153 2661.64,15.111 "/>
<polygon fill="#F16824" points="2655.205,15.492 2710.64,52.778 2651.64,94.111 2619.266,94.111 2679.016,53.153 2624.64,15.111 "/>
<polygon fill="#059348" points="2617.205,15.492 2672.64,52.778 2613.64,94.111 2581.266,94.111 2641.016,53.153 2586.64,15.111 "/>
<polygon fill="#F69322" points="2579.205,15.492 2634.64,52.778 2575.64,94.111 2543.266,94.111 2603.016,53.153 2548.64,15.111 "/>
<polygon fill="#FFFFFF" points="2541.205,15.492 2596.64,52.778 2537.64,94.111 2505.266,94.111 2565.016,53.153 2510.64,15.111 "/>
<polyline fill="#059348" points="2453.23,53.028 2501.73,15.111 2553.23,53.028 2503.23,88.028 2454.268,54.611 "/>
<polyline fill="#F69322" points="2467.928,52.599 2502.172,25.829 2538.533,52.599 2503.23,77.312 2468.66,53.718 "/>
<polyline fill="#F69322" points="1899.867,52.599 1934.111,25.829 1970.473,52.599 1935.17,77.312 1900.6,53.718 "/>
<polygon fill="#059348" points="2785.232,47.278 2834.298,15.111 2737.63,15.111 "/>
<polygon fill="#059348" points="2787.232,57.478 2737.316,94.111 2837.964,94.111 "/>
<polygon fill="#F69322" points="2844.221,15.492 2788.786,52.778 2847.786,94.111 2880.16,94.111 2820.41,53.153 2874.786,15.111 
	"/>
<polygon fill="#059348" points="2882.221,15.492 2826.786,52.778 2885.786,94.111 2918.16,94.111 2858.41,53.153 2912.786,15.111 
	"/>
<polygon fill="#F16824" points="2919.221,15.492 2863.786,52.778 2922.786,94.111 2955.16,94.111 2895.41,53.153 2949.786,15.111 
	"/>
<polygon fill="#059348" points="2957.221,15.492 2901.786,52.778 2960.786,94.111 2993.16,94.111 2933.41,53.153 2987.786,15.111 
	"/>
<polygon fill="#F69322" points="2995.221,15.492 2939.786,52.778 2998.786,94.111 3031.16,94.111 2971.41,53.153 3025.786,15.111 
	"/>
<polygon fill="#FFFFFF" points="3033.221,15.492 2977.786,52.778 3036.786,94.111 3069.16,94.111 3009.41,53.153 3063.786,15.111 
	"/>
<polygon fill="#FFFFFF" points="3110.411,15.492 3165.846,52.778 3106.846,94.111 3074.472,94.111 3134.222,53.153 3079.846,15.111 
	"/>
<polyline fill="#059348" points="3022.437,53.028 3070.937,15.111 3122.436,53.028 3072.437,88.028 3023.474,54.611 "/>
<polyline fill="#F69322" points="3039.169,52.599 3073.413,25.829 3109.774,52.599 3074.472,77.312 3039.901,53.718 "/>
<polygon fill="#F69322" points="3272.6,14.153 3299.31,32.839 3299.31,14.486 "/>
<polygon fill="#F69322" points="3267.226,93.152 3299.31,93.152 3299.31,71.16 "/>
<polygon fill="#059348" points="3265.165,14.534 3234.6,14.153 3288.976,52.194 3229.226,93.152 3261.6,93.152 3299.31,66.734 
	3299.31,37.5 "/>
<rect x="1694.018" y="1.444" fill="#F69322" width="1605.292" height="5"/>
<rect x="1694.018" y="6.444" fill="#F69322" width="1605.292" height="5"/>
<rect x="1698.393" y="103.111" fill="#F69322" width="1600.917" height="5"/>
<rect x="1698.393" y="98.111" fill="#F69322" width="1600.917" height="5"/>
</svg>
